<svg width="418.6993858" height="157.4835958" xmlns="http://www.w3.org/2000/svg" version="1.1">

 <g>
  <title>Layer 1</title>
  <path fill-rule="nonzero" fill="#b3b3b3" id="path54471" d="m187.75395,50.96677l0.01,4.57031l0.30273,0.36133l-0.3125,-4.93164l-0.00023,0zm0,0l0.3125,4.93164l-0.0146,-4.48242l-0.29787,-0.44922l-0.00003,0zm0.0976,41.16211l0.01,4.57031l0.30273,-0.44433l-0.3125,-4.12598l-0.00023,0zm0,0l0.3125,4.12598l-0.0146,-4.48731l-0.29785,0.36133l-0.00005,0zm9.3457,-41.1377l-0.01,45.6836l0.11713,-0.44434l-0.10738,-45.23926l0.00025,0zm0,0l0.10737,45.23926l0.005,-44.79492l-0.11225,-0.44434l-0.00012,0zm-49.41407,4.43848l39.98048,0.10742l-0.01,-4.57031l-39.9707,4.46289l0.00022,0zm43.73535,0.10742l5.67872,-4.54589l-5.69337,0l0.0146,4.54589l0.00005,0zm0,0l5.66895,41.1377l0.01,-45.68359l-5.67871,4.54589l-0.00024,0zm-42.70018,4.42383l38.94531,-4.42383l-39.98048,-0.10742l1.03517,4.53125zm0,0l42.70018,-4.42383l-3.75487,0l-38.94531,4.42383zm0,0l42.7832,32.16797c-0.0292,-12.20215 -0.0538,-24.39453 -0.083,-36.5918l-42.70019,4.42383l-0.00001,0zm42.7832,32.16797l5.58593,4.5459l-5.66895,-41.1377l0.083,36.5918l0.00002,0zm-43.81837,-36.69922l39.9707,-4.46289l-41.3037,0l1.333,4.46289zm1.78712,9.1211l42.03125,27.57812l-42.7832,-32.16797l0.75195,4.58985zm0.44922,4.6289l41.58203,22.94922l-42.03125,-27.57812l0.44922,4.6289zm0.16113,4.64356l41.4209,18.30566l-41.58203,-22.94922l0.16113,4.64356zm-0.13672,4.64355l41.55762,13.66211l-41.4209,-18.30566l-0.13672,4.64355zm-0.43457,4.63379l41.99219,9.02832l-41.55762,-13.66211l-0.43457,4.63379zm-0.72265,4.58984l42.71485,4.43848l-41.9922,-9.02832l-0.72264,4.58984l-0.00001,0zm-1.02051,4.54102l39.98535,-0.10254l-38.96484,-4.43847l-1.02051,4.54101zm39.98535,-0.10254l3.75,0l-42.71484,-4.43847l38.96484,4.43847zm-39.98535,0.10254l39.99511,4.46777l-0.01,-4.57031l-39.98534,0.10254l0.00023,0zm43.75,4.44336l5.57128,0l-5.58592,-4.5459l0.0146,4.5459l0.00004,0zm-45.05372,0.0244l41.29883,0l-39.99511,-4.46777l-1.30372,4.46777zm0,0"/>
  <path fill-rule="nonzero" fill="#ff9900" id="path54473" d="m70.55181,147.86618l4.72168,0.13184l4.70703,-0.15625l-9.42871,0.0244l0,0.00001zm0,0l9.42871,-0.0244l-14.12109,-0.40039l4.69238,0.4248l0,-0.00001zm-4.69238,-0.4248l14.12109,0.40039l4.69727,-0.44434l-18.81836,0.044l0,-0.00005zm0,0l18.81836,-0.044l-23.48145,-0.67382l4.66309,0.71777l0,0.00005zm-4.66309,-0.71777l23.48145,0.67382l4.66308,-0.7373l-28.14453,0.0635l0,-0.00002zm0,0l28.14453,-0.0635l-32.7539,-0.94239l4.60937,1.00586l0,0.00003zm-4.60937,-1.00586l32.7539,0.94238l4.59473,-1.0254l-37.34863,0.083l0,0.00002zm0,0l37.34863,-0.083l-41.875,-1.20117l4.52637,1.28418l0,-0.00001zm-4.52637,-1.28418l41.875,1.20116l4.53125,-1.30858l-46.40625,0.10737l0,0.00005zm0,0l46.40625,-0.10737l-50.84961,-1.45997l4.44336,1.56739l0,-0.00005zm-4.44336,-1.56739l50.84961,1.45996l4.43359,-1.58691l-55.2832,0.12695zm0,0l55.2832,-0.12695l-59.61914,-1.70898l4.33594,1.83593zm-4.33594,-1.83593l59.61914,1.70898l4.32129,-1.85547l-63.94043,0.14648l0,0.00001zm0,0l63.94043,-0.14649l-68.14941,-1.95313l4.20898,2.09962zm-4.20898,-2.09962l68.14941,1.95313l4.19922,-2.12403l-72.34863,0.1709zm0,0l72.34863,-0.1709l-76.41601,-2.1875l4.06738,2.3584zm-4.06738,-2.3584l76.41601,2.1875l4.05273,-2.37303l-80.46874,0.18553zm0,0l80.46874,-0.18553l-84.37499,-2.41701l3.90625,2.60254zm-3.90625,-2.60254l84.37499,2.41701l3.90137,-2.61719l-88.27636,0.20018zm0,0l88.27636,-0.20018l-92.01171,-2.63673l3.73535,2.83691zm-3.73535,-2.83691l92.01171,2.63673l3.71583,-2.86621l-95.72754,0.22948zm0,0l95.72754,-0.22948l-99.27247,-2.83692l3.54493,3.0664zm-3.54493,-3.0664l99.27247,2.83692l3.53515,-3.08107l-102.80762,0.24415zm0,0l102.80762,-0.24415l-106.15234,-3.0371l3.34472,3.28125zm-3.34472,-3.28125l106.15234,3.0371l3.32519,-3.2959l-109.47753,0.2588zm0,0l109.47753,-0.2588l-112.60253,-3.22265l3.125,3.48145zm-3.125,-3.48145l112.60253,3.22265l3.11524,-3.4912l-115.71777,0.26855zm0,0l115.71777,-0.26855l-118.61816,-3.39356l2.90039,3.66211zm-2.90039,-3.66211l118.61816,3.39356l2.88085,-3.68164l-121.49901,0.28808zm0,0l121.49901,-0.28808l-124.16015,-3.54981l2.66114,3.83789zm-2.66114,-3.83789l124.16015,3.54981l2.6416,-3.84766l-126.80175,0.29785zm0,0l126.80175,-0.29785l-129.21386,-3.70117l2.41211,3.99902zm-2.41211,-3.99902l129.21386,3.70117l2.3926,-4.01367l-131.60646,0.3125zm0,0l131.60645,-0.3125l-133.75977,-3.82813l2.15332,4.14063zm-2.15332,-4.14063l133.75977,3.82813l2.1289,-4.14063l-135.88867,0.3125zm0,0l135.88867,-0.3125l-137.77343,-3.94531l1.88476,4.25781zm-1.88476,-4.25781l137.77343,3.94531l1.86035,-4.27734l-139.63378,0.33203zm0,0l139.63378,-0.33203l-141.24023,-4.03808l1.60645,4.37011zm-1.60645,-4.37011l141.24023,4.03808l1.5918,-4.375l-142.83203,0.33692zm0,0l142.83203,-0.33692l-40.9668,0l-101.86523,0.33692zm0,0l101.86523,-0.33692l-1.45507,-0.0391l-100.41016,0.37598l0,0.00004zm0,0l100.41016,-0.37598l-1.45508,-0.13672l-98.95508,0.5127zm0,0l98.95508,-0.5127l-1.43555,-0.21973l-97.51953,0.73243zm0,0l97.51953,-0.73243l-1.43066,-0.3125l-96.08887,1.04493zm0,0l96.08887,-1.04493l-1.39648,-0.40039l-94.69239,1.44532zm0,0l94.69239,-1.44532l-1.37207,-0.4834l-93.32032,1.92872zm0,0l93.32032,-1.92872l-1.3379,-0.5664l-91.98242,2.49512zm0,0l91.98242,-2.49512l-1.30859,-0.6543l-90.67383,3.14942zm0,0l90.67383,-3.14942l-1.25,-0.72754l-89.42383,3.87696zm0,0l89.42383,-3.87696l-90.74707,-0.58594l1.32324,4.4629zm-1.32324,-4.4629l90.74707,0.58594l-1.21094,-0.80566l-89.53613,0.21972zm0,0l89.53613,-0.21972l-1.15234,-0.87891l-88.38379,1.09863zm0,0l88.38379,-1.09863l-1.09863,-0.95215l-87.28516,2.05078zm0,0l87.28516,-2.05078l-1.03028,-1.01074l-86.25488,3.06152zm0,0l86.25488,-3.06152l-0.96679,-1.07422l-85.28809,4.13574zm0,0l85.28809,-4.13574l-86.33301,-0.40039l1.04492,4.53613zm-1.04492,-4.53613l86.33301,0.40039l-0.89356,-1.13769l-85.43945,0.7373zm0,0l85.43945,-0.7373l-0.82519,-1.18653l-84.61426,1.92383zm0,0l84.61426,-1.92383l-0.74219,-1.23535l-83.87207,3.15918zm0,0l83.87207,-3.15918l-0.66895,-1.28418l-83.20312,4.44336zm0,0l83.20312,-4.44336l-83.95019,-0.14648l0.74707,4.58984zm-0.74707,-4.58984l83.95019,0.14648l-0.58105,-1.30859l-83.36914,1.16211zm0,0l83.36914,-1.16211l-0.49316,-1.35742l-82.87598,2.51953zm0,0l82.87598,-2.51953l-0.40528,-1.37696l-82.4707,3.89649zm0,0l82.4707,-3.89649l-82.9248,-0.72754l0.4541,4.62403zm-0.4541,-4.62403l82.9248,0.72754l-0.32715,-1.39648l-82.59765,0.66894zm0,0l82.59765,-0.66894l-0.22949,-1.42578l-82.36816,2.09472zm0,0l82.36816,-2.09472l-0.13672,-1.42578l-82.23144,3.5205zm0,0l82.23144,-3.5205l-82.39258,-1.12305l0.16114,4.64355zm-0.16114,-4.64355l82.39258,1.12305l-0.0488,-1.44043l-82.34375,0.31738l-0.00003,0zm0,0l82.34375,-0.31738l0.0439,-1.43555l-82.3877,1.75293l0.00005,0zm0,0l82.3877,-1.75293l0.13184,-1.43066l-82.51954,3.18359zm0,0l82.51954,-3.18359l0.22949,-1.4209l-82.74903,4.60449zm0,0l82.74903,-4.60449l-82.61231,-0.0488l-0.13672,4.65332l0,-0.00003zm0.13672,-4.65332l82.61231,0.0488l0.30761,-1.40137l-82.91992,1.35254l0,0.00003zm0,0l82.91992,-1.35254l0.41016,-1.38184l-83.33008,2.73438zm0,0l83.33008,-2.73438l0.48828,-1.35253l-83.81836,4.08691zm0,0l83.81836,-4.08691l-83.38379,-0.53711l-0.43457,4.62402zm0.43457,-4.62402l83.38379,0.53711l0.58106,-1.31836l-83.96485,0.78125zm0,0l83.96485,-0.78125l0.65918,-1.28418l-84.62403,2.06543zm0,0l84.62403,-2.06543l0.7373,-1.23536l-85.36133,3.30079zm0,0l85.36133,-3.30079l0.82031,-1.1914l-86.18164,4.49219zm0,0l86.18164,-4.49219l-85.4541,-0.10743l-0.72754,4.59961l0,0.00001zm0.72754,-4.59961l85.4541,0.10742l0.88868,-1.13769l-86.34278,1.03027zm0,0l86.34278,-1.03028l0.96679,-1.0791l-87.30957,2.10938zm0,0l87.30957,-2.10938l1.02539,-1.02051l-88.33496,3.12989zm0,0l88.33496,-3.12989l1.08887,-0.95214l-89.42383,4.08203zm0,0l89.42383,-4.08203l-88.4082,-0.44922l-1.01563,4.53125zm1.01563,-4.53125l88.4082,0.44922l1.15723,-0.87891l-89.56543,0.42969zm0,0l89.56543,-0.42969l1.20117,-0.81055l-90.7666,1.24024zm0,0l90.7666,-1.24024l1.25488,-0.73242l-92.02148,1.97266zm0,0l92.02148,-1.97266l1.29883,-0.65918l-93.32031,2.63184zm0,0l93.32031,-2.63184l1.33789,-0.56641l-94.6582,3.19825zm0,0l94.6582,-3.19825l1.36719,-0.49316l-96.02539,3.69141zm0,0l96.02539,-3.69141l1.40625,-0.40527l-97.43164,4.09668zm0,0l97.43164,-4.09668l1.42089,-0.3125l-98.85253,4.40918zm0,0l98.85253,-4.40918l-97.54394,-0.0586l-1.30859,4.46777l0,0.00001zm1.30859,-4.46778l97.54394,0.0586l1.43555,-0.22949l-98.97949,0.1709l0,-0.00001zm0,0l98.97949,-0.1709l1.4502,-0.13671l-100.42969,0.30761zm0,0l100.42969,-0.30761l1.45996,-0.0488l-101.88965,0.35645l0,-0.00004zm101.88965,-0.35644l40.9375,0.0195l-141.24023,-4.04785l100.30273,4.02832l0,0.00003zm-101.88965,0.35644l101.88965,-0.35644l-100.30273,-4.02832l-1.58692,4.38476zm1.58692,-4.38476l141.24023,4.04785l-1.60645,-4.37012l-139.63378,0.32227zm0,0l139.63378,-0.32227l-137.77343,-3.94043l-1.86035,4.2627zm1.86035,-4.2627l137.77343,3.94043l-1.88476,-4.26758l-135.88867,0.32715zm0,0l135.88867,-0.32715l-133.75977,-3.82324l-2.1289,4.15039zm2.1289,-4.15039l133.75977,3.82324l-2.14844,-4.13086l-131.61133,0.30762zm0,0l131.61133,-0.30762l-129.21875,-3.69628l-2.39258,4.0039zm2.39258,-4.00391l129.21875,3.69629l-2.41211,-3.99902l-126.80664,0.30274l0,-0.00001zm0,0l126.80664,-0.30273l-124.16015,-3.5498l-2.64649,3.85253zm2.64649,-3.85253l124.16015,3.5498l-2.66114,-3.83789l-121.49901,0.28809zm0,0l121.49901,-0.28809l-118.61816,-3.39355l-2.88085,3.68164zm2.88085,-3.68164l118.61816,3.39355l-2.90526,-3.66699l-115.7129,0.27344zm0,0l115.7129,-0.27344l-112.60254,-3.22266l-3.11036,3.4961zm3.11036,-3.4961l112.60254,3.22266l-3.125,-3.48145l-109.47754,0.25879zm0,0l109.47754,-0.25879l-106.15235,-3.03711l-3.32519,3.2959zm3.32519,-3.2959l106.15235,3.03711l-3.34474,-3.27636l-102.80761,0.23925zm0,0l102.80761,-0.23925l-99.27245,-2.84668l-3.53516,3.08593zm3.53516,-3.08593l99.27245,2.84668l-3.54491,-3.06153l-95.72754,0.21485zm0,0l95.72754,-0.21485l-92.01172,-2.63672l-3.71582,2.85157zm3.71582,-2.85157l92.01172,2.63672l-3.73536,-2.84668l-88.27636,0.20996zm0,0l88.27636,-0.20996l-84.37499,-2.41699l-3.90137,2.62695zm3.90137,-2.62695l84.37499,2.41699l-3.90625,-2.60254l-80.46874,0.18555zm0,0l80.46874,-0.18555l-76.41601,-2.1875l-4.05273,2.37305zm4.05273,-2.37305l76.41601,2.1875l-4.0625,-2.35839l-72.35351,0.17089zm0,0l72.35351,-0.17089l-68.15429,-1.94825l-4.19922,2.11914zm4.19922,-2.11914l68.15429,1.94825l-4.21387,-2.09961l-63.94042,0.15136zm0,0l63.94042,-0.15136l-59.61913,-1.7041l-4.32129,1.85546zm4.32129,-1.85546l59.61913,1.7041l-4.33105,-1.84082l-55.28808,0.13672zm0,0l55.28808,-0.13672l-50.84961,-1.4502l-4.43847,1.58692zm4.43847,-1.58692l50.84961,1.4502l-4.43847,-1.5625l-46.41114,0.1123zm0,0l46.41114,-0.1123l-41.88477,-1.19141l-4.52637,1.30371zm4.52637,-1.30371l41.88477,1.19141l-4.53614,-1.28418l-37.34863,0.0928l0,-0.00003zm0,0l37.34863,-0.0928l-32.74414,-0.93262l-4.60449,1.02539l0,0.00003zm4.60449,-1.02539l32.74414,0.93262l-4.60937,-1.00098l-28.13477,0.0684l0,-0.00004zm0,0l28.13477,-0.0684l-23.47656,-0.67383l-4.65821,0.74219l0,0.00004zm4.65821,-0.74219l23.47656,0.67383l-4.6582,-0.71289l-18.81836,0.0391l0,-0.00004zm0,0l18.81836,-0.0391l-14.12598,-0.41016l-4.69238,0.44922l0,0.00004zm4.69238,-0.44922l14.12598,0.41016l-4.69727,-0.42969l-9.42871,0.0195l0,0.00003zm0,0l9.42871,-0.0195l-4.7168,-0.13672l-4.71191,0.15625l0,-0.00003zm33.94043,96.50391l3.36914,-0.40527l-1.43555,-0.0439l-1.93359,0.44921l0,-0.00004zm0,0l1.45507,0.0391l1.91407,-0.44434l-3.36914,0.40528l0,-0.00004zm-1.45508,-0.13672l3.38867,-0.3125l-1.4209,-0.12695l-1.96777,0.43945zm0,0l1.45508,0.13672l1.93359,-0.44922l-3.38867,0.3125zm-1.43555,-0.21973l3.40332,-0.21972l-1.41113,-0.21973l-1.99219,0.43945zm0,0l1.43555,0.21973l1.96777,-0.43945l-3.40332,0.21972zm-1.43066,-0.3125l3.42285,-0.12695l-1.39649,-0.30762l-2.02636,0.43457zm0,0l1.43066,0.3125l1.99219,-0.43945l-3.42285,0.12695zm-1.39648,-0.40039l3.42284,-0.0342l-1.37207,-0.39062l-2.05077,0.4248l0,0.00002zm0,0l1.39648,0.40039l2.02636,-0.43457l-3.42284,0.0342l0,-0.00002zm-1.37207,-0.4834l3.42284,0.0586l-1.34277,-0.47363l-2.08007,0.41504l0,-0.00001zm0,0l1.37207,0.4834l2.05077,-0.4248l-3.42284,-0.0586zm-1.3379,-0.5664l3.41797,0.15137l-1.31836,-0.55665l-2.09961,0.40528zm0,0l1.3379,0.5664l2.08007,-0.41503l-3.41797,-0.15137zm-1.30859,-0.6543l3.4082,0.24902l-1.26953,-0.63964l-2.13867,0.39062zm0,0l1.30859,0.6543l2.09961,-0.40528l-3.4082,-0.24902zm-1.25,-0.72754l3.38867,0.33692l-1.23535,-0.71289l-2.15332,0.37597zm0,0l1.25,0.72754l2.13867,-0.39062l-3.38867,-0.33692zm-1.21094,-0.80566l3.36426,0.42969l-1.18164,-0.79102l-2.18262,0.36133zm0,0l1.21094,0.80566l2.15332,-0.37597l-3.36426,-0.42969zm-1.15234,-0.87891l3.33496,0.51758l-1.13769,-0.85938l-2.19727,0.3418zm0,0l1.15234,0.87891l2.18262,-0.36133l-3.33496,-0.51758zm-1.09863,-0.95215l3.2959,0.61035l-1.07422,-0.93261l-2.22168,0.32226zm0,0l1.09863,0.95215l2.19727,-0.3418l-3.2959,-0.61035zm-1.03027,-1.01074l3.25195,0.68848l-1.01075,-0.9961l-2.2412,0.30762zm0,0l1.03027,1.01074l2.22168,-0.32226l-3.25196,-0.68848l0.00001,0zm-0.9668,-1.07422l3.208,0.7666l-0.94726,-1.05468l-2.26074,0.28808zm0,0l0.96679,1.07422l2.24121,-0.30762l-3.208,-0.7666zm-0.89356,-1.13769l3.1543,0.84961l-0.87891,-1.1084l-2.27539,0.25879zm0,0l0.89356,1.13769l2.26074,-0.28808l-3.1543,-0.84961zm-0.82519,-1.18653l3.10058,0.92774l-0.80566,-1.16211l-2.29492,0.23437zm0,0l0.82519,1.18653l2.27539,-0.25879l-3.10058,-0.92774zm-0.74219,-1.23535l3.03711,1.00098l-0.72754,-1.21582l-2.30957,0.21484zm0,0l0.74219,1.23535l2.29492,-0.23437l-3.03711,-1.00098zm-0.66895,-1.28418l2.97852,1.06934l-0.64941,-1.25l-2.32911,0.18066zm0,0l0.66895,1.28418l2.30957,-0.21484l-2.97852,-1.06934zm-0.58105,-1.30859l2.91016,1.12793l-0.57129,-1.29395l-2.33887,0.16602zm0,0l0.58105,1.30859l2.32911,-0.18066l-2.91016,-1.12793zm-0.49316,-1.35742l2.83203,1.1914l-0.48828,-1.32324l-2.34375,0.13184zm0,0l0.49316,1.35742l2.33887,-0.16602l-2.83203,-1.1914zm-0.40528,-1.37696l2.74903,1.24512l-0.4004,-1.35742l-2.34863,0.1123zm0,0l0.40528,1.37696l2.34375,-0.13184l-2.74903,-1.24512zm-0.32715,-1.39648l2.67578,1.28418l-0.3125,-1.37207l-2.36328,0.0879l0,-0.00001zm0,0l0.32715,1.39648l2.34863,-0.1123l-2.67578,-1.28418zm-0.22949,-1.42578l2.59277,1.33789l-0.2246,-1.3916l-2.36817,0.0537l0,0.00001zm0,0l0.22949,1.42578l2.36328,-0.0879l-2.59277,-1.33789l0,0.00001zm-0.13672,-1.42578l2.50489,1.37207l-0.1416,-1.40137l-2.36329,0.0293zm0,0l0.13672,1.42578l2.36817,-0.0537l-2.50489,-1.37207l0,-0.00001zm-0.0488,-1.44043l2.41211,1.41113l-0.0488,-1.40625l-2.36328,-0.005l-0.00003,0.00012zm0,0l0.0488,1.44043l2.36328,-0.0293l-2.41211,-1.41113l0.00003,0zm0.0439,-1.43555l2.31934,1.44043l0.0439,-1.41113l-2.36328,-0.0293l0.00004,0zm0,0l-0.0439,1.43555l2.36328,0.005l-2.31933,-1.44043l-0.00005,-0.00012zm0.13184,-1.43066l2.23144,1.45996l0.13184,-1.40137l-2.36328,-0.0586l0,0.00001zm0,0l-0.13184,1.43066l2.36328,0.0293l-2.23144,-1.45996zm0.22949,-1.4209l2.13379,1.47949l0.21973,-1.3916l-2.35352,-0.0879l0,0.00001zm0,0l-0.22949,1.4209l2.36328,0.0586l-2.13379,-1.4795zm0.30762,-1.40137l2.0459,1.48926l0.3125,-1.37207l-2.3584,-0.11719zm0,0l-0.30762,1.40137l2.35352,0.0879l-2.0459,-1.48926l0,-0.00001zm0.41015,-1.38184l1.94825,1.49903l0.3955,-1.35742l-2.34375,-0.14161zm0,0l-0.41015,1.38184l2.3584,0.11719l-1.94824,-1.49903l-0.00001,0zm0.48828,-1.35253l1.85547,1.49414l0.4834,-1.32325l-2.33887,-0.17089zm0,0l-0.48828,1.35253l2.34375,0.14161l-1.85547,-1.49414zm0.58106,-1.31836l1.75781,1.48925l0.56641,-1.29394l-2.32422,-0.19531zm0,0l-0.58106,1.31836l2.33887,0.17089l-1.75781,-1.48925zm0.65918,-1.28418l1.66504,1.47949l0.64941,-1.25977l-2.31445,-0.21972zm0,0l-0.65918,1.28418l2.32422,0.19531l-1.66504,-1.47949zm0.73731,-1.23536l1.57714,1.45508l0.71778,-1.21093l-2.29492,-0.24415zm0,0l-0.73731,1.23536l2.31445,0.21972l-1.57714,-1.45508zm0.82031,-1.1914l1.47461,1.43555l0.80566,-1.167l-2.28027,-0.26855zm0,0l-0.82031,1.1914l2.29492,0.24415l-1.47461,-1.43555zm0.88867,-1.1377l1.3916,1.40625l0.87402,-1.11816l-2.26562,-0.28809zm0,0l-0.88867,1.1377l2.28027,0.26855l-1.3916,-1.40625zm0.9668,-1.0791l1.29882,1.36719l0.94727,-1.05469l-2.24609,-0.3125zm0,0l-0.9668,1.0791l2.26562,0.28809l-1.29882,-1.36719zm1.03027,-1.02051l1.21582,1.33301l1.00586,-1.00098l-2.22168,-0.33203zm0,0l-1.03027,1.02051l2.24609,0.3125l-1.21582,-1.33301zm1.08398,-0.95214l1.1377,1.28417l1.06934,-0.93261l-2.20704,-0.35156zm0,0l-1.08398,0.95214l2.22168,0.33203l-1.1377,-1.28417zm1.15723,-0.87891l1.04981,1.23047l1.12793,-0.86914l-2.17774,-0.36133zm0,0l-1.15723,0.87891l2.20704,0.35156l-1.04981,-1.23047zm1.20117,-0.81055l0.97656,1.17188l1.18652,-0.79102l-2.16308,-0.38086zm0,0l-1.20118,0.81055l2.17774,0.36133l-0.97656,-1.17188zm1.25488,-0.73242l0.9082,1.11328l1.22559,-0.71777l-2.13379,-0.39551zm0,0l-1.25488,0.73242l2.16308,0.38086l-0.9082,-1.11328zm1.29882,-0.65918l0.83497,1.05469l1.27441,-0.64453l-2.10938,-0.41016zm0,0l-1.29882,0.65918l2.13379,0.39551l-0.83497,-1.05469zm1.3379,-0.57129l0.77148,0.98145l1.3086,-0.56153l-2.08008,-0.41992zm0,0l-1.3379,0.57129l2.10938,0.41016l-0.77148,-0.98145zm1.36718,-0.48828l0.7129,0.9082l1.34765,-0.47851l-2.06055,-0.42969zm0,0l-1.36718,0.48828l2.08008,0.41992l-0.7129,-0.9082zm1.40625,-0.40527l0.6543,0.83496l1.36719,-0.39551l-2.02149,-0.43945zm0,0l-1.40625,0.40527l2.06055,0.42969l-0.6543,-0.83496zm1.4209,-0.3125l0.60059,0.75195l1.39648,-0.3125l-1.99707,-0.43945zm0,0l-1.4209,0.3125l2.02149,0.43945l-0.60059,-0.75195zm1.43555,-0.2295l0.56152,0.66895l1.41115,-0.21973l-1.97267,-0.44922zm0,0l-1.43555,0.2295l1.99707,0.43945l-0.56152,-0.66895zm1.4502,-0.13671l0.52247,0.58593l1.42089,-0.13183l-1.94336,-0.4541zm0,0l-1.4502,0.13671l1.97267,0.44922l-0.52247,-0.58593zm1.45997,-0.0488l0.48339,0.50293l1.42579,-0.0488l-1.90918,-0.45411l0,-0.00002zm0,0l-1.45997,0.0488l1.94336,0.4541l-0.48339,-0.50293l0,0.00003zm0.083,45.75195l42.0752,-0.44434l-40.16114,0l-1.91406,0.44434zm0,0l40.96679,0l1.10841,-0.44434l-42.0752,0.44434zm17.49512,34.2041l-2.0752,1.69434l3.64258,-2.8125l-1.56737,1.11816l-0.00001,0zm0,0l-3.71581,2.86622l1.64061,-1.17188l2.0752,-1.69434zm3.53515,-3.08106l-1.96777,1.9629l3.46191,-3.01759l-1.49414,1.05469zm0,0l-3.53515,3.08106l1.56738,-1.11816l1.96777,-1.9629zm3.32519,-3.2959l-1.83105,2.24121l3.2666,-3.23241l-1.43555,0.9912zm0,0l-3.32519,3.2959l1.49414,-1.05469l1.83105,-2.24121zm3.11524,-3.4912l-1.67968,2.5l3.05174,-3.42285l-1.37206,0.92285zm0,0l-3.11524,3.4912l1.43556,-0.9912l1.67968,-2.5zm2.88085,-3.68164l-1.50879,2.75879l2.82715,-3.6084l-1.31837,0.84961l0.00001,0zm0,0l-2.88085,3.68164l1.37206,-0.92285l1.50879,-2.75879zm2.64161,-3.84766l-1.32323,2.99805l2.58788,-3.77441l-1.26465,0.77636zm0,0l-2.64161,3.84766l1.31837,-0.84961l1.32324,-2.99805zm2.39259,-4.01367l-1.12794,3.23731l2.34375,-3.93068l-1.21581,0.69336l0,0.00001zm0,0l-2.39259,4.01367l1.26464,-0.77636l1.12794,-3.23731l0.00001,0zm2.12889,-4.14062l-2.12889,4.14062l1.21581,-0.69336l0.91309,-3.44726l-0.00001,0zm3.33986,-54.38477l-39.02832,0.43457l40.13672,0.0147l-1.1084,-0.44922l0,-0.00005zm0,0l-40.9375,-0.0195l1.90918,0.4541l39.02832,-0.43457l0,-0.00003zm-5.63965,-12.76856l3.32518,4.75586l-2.10448,-4.05273l-1.2207,-0.70313zm0,0l2.14844,4.13086l1.17674,0.625l-3.32518,-4.75586zm-2.41212,-3.99902l3.63282,4.70215l-2.36816,-3.9209l-1.26465,-0.78125l-0.00001,0zm0,0l2.41212,3.99902l1.2207,0.70313l-3.63282,-4.70215zm-2.66113,-3.83789l3.92579,4.61914l-2.60743,-3.76465l-1.31836,-0.85449zm0,0l2.66113,3.83789l1.26466,0.78125l-3.9258,-4.61914l0.00001,0zm-2.90526,-3.66699l4.22362,4.52148l-2.8418,-3.59375l-1.38182,-0.92773zm0,0l2.90526,3.66699l1.31836,0.85449l-4.22362,-4.52148zm-3.125,-3.48145l4.50682,4.40918l-3.0664,-3.41308l-1.44042,-0.9961zm0,0l3.125,3.48145l1.38182,0.92773l-4.50682,-4.40918zm-3.34474,-3.27637l4.78516,4.27247l-3.27636,-3.2129l-1.5088,-1.05957zm0,0l3.34474,3.27637l1.44042,0.9961l-4.78517,-4.27247l0.00001,0zm-3.54491,-3.07128l5.05371,4.13085l-3.47657,-3.00781l-1.57715,-1.12304l0.00001,0zm0,0l3.54491,3.07128l1.5088,1.05957l-5.05371,-4.13085zm-3.73535,-2.83692l5.3125,3.95996l-3.66211,-2.7832l-1.65039,-1.17676zm0,0l3.73535,2.83692l1.57715,1.12304l-5.3125,-3.95996zm23.87695,28.30078l1.88476,4.26758l1.14258,0.53711l-3.02734,-4.80469zm0,0l3.02734,4.80469l-1.8506,-4.17969l-1.17674,-0.625zm1.88476,4.26758l1.60645,4.37012l1.1084,0.44922l-2.71486,-4.81934l0.00001,0zm0,0l2.71485,4.81934l-1.57227,-4.28223l-1.14258,-0.53711zm1.71875,50.10254l-1.5918,4.375l1.14259,-0.52734l0.44921,-3.84766zm0,0l-0.44921,3.84766l1.55761,-4.292l-1.1084,0.44434zm-1.5918,4.375l-1.86036,4.27735l1.17677,-0.62012l0.68359,-3.65723zm0,0l-0.68359,3.65723l1.82617,-4.18457l-1.14258,0.52734zm-1.86036,4.27735l-0.91309,3.44726l2.08986,-4.06738l-1.17677,0.62012zm0,0"/>
  <path fill-rule="nonzero" fill="#ff9900" id="path54475" d="m200.94731,68.34958l0,10.9668l86.35254,-5.48828l-86.35254,-5.47852zm206.50391,-17.3584l-206.50391,0l0,9.13575l206.50391,-9.13575zm-206.50878,36.54785l0,9.13575l206.49901,0l-206.49901,-9.13575zm0,0l202.49022,8.69141l-202.44629,-8.95508l-0.044,0.26367l0.00007,0zm0,0l206.49901,9.13575l-4.00879,-0.44434l-202.49022,-8.69141zm0.005,-27.4121l202.5,-8.69141l4.00391,-0.44434l-206.50391,9.13575zm0,0l0.044,0.26855l202.45606,-8.95996l-202.50001,8.69141l-0.00005,0zm0,0"/>
  <path fill-rule="nonzero" fill="#b3b3b3" id="path54487" d="m406.26958,102.05075l0,5.68848l-11.6455,0l0,22.72949l-19.58008,0l0,-22.72949l-11.59669,0l0,-5.68848l42.82227,0zm0,0m-79.06738,0l32.66601,0l0,5.68848l-13.06152,0l0,5.39551l12.23145,0l0,5.3955l-12.23145,0l0,6.25l14.37989,0l0,5.68848l-33.98438,0l0,-28.41797zm0,0m-16.5625,0l0,22.72949l11.91406,0l0,5.68848l-31.51855,0l0,-28.41797l19.6045,0l-0.00001,0zm0,0m-36.26465,0l0,22.72949l11.91406,0l0,5.68848l-31.51855,0l0,-28.41797l19.60449,0zm0,0m-27.04101,0l0,18.99414c0,2.14844 -0.18555,3.66212 -0.56153,4.54102c-0.35645,0.86914 -1.45507,1.75781 -3.2959,2.68555c-1.82129,0.91796 -4.23339,1.60643 -7.22656,2.07518c-2.99316,0.46875 -6.52833,0.70802 -10.5957,0.70802c-4.49218,0 -8.46191,-0.27833 -11.91406,-0.83008c-3.43263,-0.56641 -6.00587,-1.29882 -7.71485,-2.19726c-1.70899,-0.88868 -2.71973,-1.83594 -3.02734,-2.83204c-0.30763,-1.00586 -0.46388,-3.11035 -0.46388,-6.32324l0,-16.82129l19.58009,0l0,21.31348c0,1.24023 0.18066,2.02636 0.5371,2.36816c0.35645,0.3418 1.08399,0.51269 2.17286,0.51269c1.23535,0 2.03613,-0.18066 2.39259,-0.56151c0.35643,-0.3711 0.5371,-1.26954 0.5371,-2.68555l0,-20.94727l19.58008,0zm0,0m-97.06544,0l19.55566,0c6.16212,0 10.83985,0.19043 14.01368,0.56152c3.1836,0.36133 5.76172,1.09375 7.71485,2.19727c1.95313,1.11328 2.92968,2.89551 2.92968,5.34668c0,1.66016 -0.69825,2.82227 -2.0752,3.4668c-1.38671,0.65429 -4.10156,1.16211 -8.1543,1.51367c4.52149,0.39062 7.59278,1.04004 9.2041,1.92871c1.61135,0.87891 2.417,2.24609 2.417,4.10156l0,2.63672c0,1.92383 -0.58593,3.34473 -1.75781,4.27246c-1.16211,0.91797 -3.00294,1.53809 -5.542,1.87988c-2.53906,0.3418 -7.75879,0.5127 -15.64941,0.5127l-22.65625,0l0,-28.41797zm19.6045,4.8584l0,6.32324c0.83007,-0.01 1.4746,-0.0244 1.95312,-0.0244c1.91407,0 3.13477,-0.1709 3.6621,-0.5127c0.53712,-0.35156 0.80569,-1.37695 0.80569,-3.07617c0,-0.88867 -0.21974,-1.51367 -0.6592,-1.85547c-0.43945,-0.35156 -1.01562,-0.58593 -1.70899,-0.68359c-0.68358,-0.0977 -2.04101,-0.15137 -4.05271,-0.1709l-0.00001,-0.00001zm0,10.74219l0,7.95898c2.74414,-0.0292 4.50195,-0.19531 5.27344,-0.48827c0.76171,-0.29298 1.14746,-1.01075 1.14746,-2.17285l0,-2.63673c0,-1.2207 -0.3418,-1.95801 -1.0254,-2.22168c-0.68359,-0.25391 -2.48535,-0.40039 -5.3955,-0.43945zm0,0"/>
  <path fill-rule="nonzero" fill="#000000" id="path54495" d="m93.17388,111.55759l-0.42969,30.74707l-30.86425,0.40039l0.4248,-30.75195l30.86914,-0.39551zm0,0m-18.91113,-5.59082l-30.96191,4.92187l-5.75684,-29.72656l30.96191,-4.93164l5.75684,29.73633zm0,0m-6.61621,-32.13867l-30.81543,-5.74707l4.96094,-29.86817l30.81054,5.74707l-4.95605,29.86817zm0,0m22.26562,-27.96387l-26.94336,-15.7373l15.07813,-26.40625l26.94824,15.74218l-15.08301,26.40137zm0,0"/>
 </g>
</svg>